<?xml version="1.0" encoding="utf-8"?>
<!-- Designed by Vexels.com - 2016 All Rights Reserved - https://vexels.com/terms-and-conditions/  -->

<svg version="1.1" id="Layer_1" xmlns="http://www.w3.org/2000/svg" xmlns:xlink="http://www.w3.org/1999/xlink" x="0px" y="0px"
	 width="1200px" height="1200px" viewBox="0 0 1200 1200" enable-background="new 0 0 1200 1200" xml:space="preserve">
<path fill="#575756" d="M824.445,50H375.482c-83.284,0-150.833,57.12-150.833,127.526v844.871
	c0,70.449,67.549,127.603,150.833,127.603h448.963c83.361,0,150.906-57.155,150.906-127.603V177.526
	C975.351,107.12,907.806,50,824.445,50z M423.981,937.906c0,16.344-17.396,29.518-38.71,29.518h-39.758
	c-21.387,0-38.706-13.174-38.706-29.518v-31.589c0-16.34,17.319-29.518,38.706-29.518h39.758c21.313,0,38.71,13.178,38.71,29.518
	V937.906z M423.981,812.3c0,16.305-17.396,29.483-38.71,29.483h-39.758c-21.387,0-38.706-13.178-38.706-29.483v-31.589
	c0-16.344,17.319-29.557,38.706-29.557h39.758c21.313,0,38.71,13.213,38.71,29.557V812.3z M423.981,686.617
	c0,16.305-17.396,29.557-38.71,29.557h-39.758c-21.387,0-38.706-13.252-38.706-29.557v-31.55c0-16.305,17.319-29.518,38.706-29.518
	h39.758c21.313,0,38.71,13.213,38.71,29.518V686.617z M423.981,560.976c0,16.34-17.396,29.518-38.71,29.518h-39.758
	c-21.387,0-38.706-13.178-38.706-29.518v-31.515c0-16.344,17.319-29.557,38.706-29.557h39.758c21.313,0,38.71,13.213,38.71,29.557
	V560.976z M580.686,937.906c0,16.344-17.318,29.518-38.783,29.518h-39.684c-21.384,0-38.707-13.174-38.707-29.518v-31.589
	c0-16.34,17.323-29.518,38.707-29.518h39.684c21.465,0,38.783,13.178,38.783,29.518V937.906z M580.686,812.3
	c0,16.305-17.318,29.483-38.783,29.483h-39.684c-21.384,0-38.707-13.178-38.707-29.483v-31.589
	c0-16.344,17.323-29.557,38.707-29.557h39.684c21.465,0,38.783,13.213,38.783,29.557V812.3z M580.686,686.617
	c0,16.305-17.318,29.557-38.783,29.557h-39.684c-21.384,0-38.707-13.252-38.707-29.557v-31.55c0-16.305,17.323-29.518,38.707-29.518
	h39.684c21.465,0,38.783,13.213,38.783,29.518V686.617z M580.686,560.976c0,16.34-17.318,29.518-38.783,29.518h-39.684
	c-21.384,0-38.707-13.178-38.707-29.518v-31.515c0-16.344,17.323-29.557,38.707-29.557h39.684c21.465,0,38.783,13.213,38.783,29.557
	V560.976z M737.394,937.906c0,16.344-17.323,29.518-38.706,29.518h-39.612c-21.537,0-38.856-13.174-38.856-29.518v-31.589
	c0-16.34,17.319-29.518,38.856-29.518h39.612c21.383,0,38.706,13.178,38.706,29.518V937.906z M737.394,812.3
	c0,16.305-17.323,29.483-38.706,29.483h-39.612c-21.537,0-38.856-13.178-38.856-29.483v-31.589
	c0-16.344,17.319-29.557,38.856-29.557h39.612c21.383,0,38.706,13.213,38.706,29.557V812.3z M737.394,686.617
	c0,16.305-17.323,29.557-38.706,29.557h-39.612c-21.537,0-38.856-13.252-38.856-29.557v-31.55c0-16.305,17.319-29.518,38.856-29.518
	h39.612c21.383,0,38.706,13.213,38.706,29.518V686.617z M737.394,560.976c0,16.34-17.323,29.518-38.706,29.518h-39.612
	c-21.537,0-38.856-13.178-38.856-29.518v-31.515c0-16.344,17.319-29.557,38.856-29.557h39.612c21.383,0,38.706,13.213,38.706,29.557
	V560.976z M894.177,812.3c0,1.018-0.301,1.92-0.378,2.938c0.077,2.298,0.378,4.519,0.378,6.928v74.435
	c0,2.336-0.301,4.48-0.378,6.817c0.077,0.941,0.378,1.92,0.378,2.899v31.589c0,16.344-17.396,29.518-38.783,29.518h-39.685
	c-21.387,0-38.782-13.174-38.782-29.518v-31.589c0-0.979,0.304-1.959,0.377-2.899c-0.073-2.336-0.377-4.48-0.377-6.817v-74.435
	c0-2.41,0.304-4.631,0.377-6.928c-0.073-1.018-0.377-1.92-0.377-2.938v-31.589c0-16.344,17.396-29.557,38.782-29.557h39.685
	c21.387,0,38.783,13.213,38.783,29.557V812.3z M894.177,686.617c0,16.305-17.396,29.557-38.783,29.557h-39.685
	c-21.387,0-38.782-13.252-38.782-29.557v-31.55c0-16.305,17.396-29.518,38.782-29.518h39.685c21.387,0,38.783,13.213,38.783,29.518
	V686.617z M894.177,560.976c0,16.34-17.396,29.518-38.783,29.518h-39.685c-21.387,0-38.782-13.178-38.782-29.518v-31.515
	c0-16.344,17.396-29.557,38.782-29.557h39.685c21.387,0,38.783,13.213,38.783,29.557V560.976z M898.391,343.912H301.537v-79.821
	c0-56.064,0.45-101.474,119.957-101.474H778.51c103.24,0,119.881,45.411,119.881,101.474V343.912z"/>
</svg>
