<svg width="80" height="80" viewBox="0 0 24 24" fill="none"
     xmlns="http://www.w3.org/2000/svg">
  <path d="M22 16.92V21a2 2 0 0 1-2.18 2
           19.79 19.79 0 0 1-8.63-3.07
           19.5 19.5 0 0 1-6-6
           19.79 19.79 0 0 1-3.07-8.67
           A2 2 0 0 1 4.11 2h4.18
           a2 2 0 0 1 2 1.72
           c.12.81.3 1.6.54 2.36
           a2 2 0 0 1-.45 2.11L9.03 9.03
           a16 16 0 0 0 6 6l1.34-1.34
           a2 2 0 0 1 2.11-.45
           c.76.24 1.55.42 2.36.54
           a2 2 0 0 1 1.72 2.04Z"
        stroke="currentColor"
        stroke-width="2"
        stroke-linecap="round"
        stroke-linejoin="round"/>
</svg>
